<mxfile host="65bd71144e">
    <diagram id="orkwO0IWu4K4UU_YGOFu" name="Page-1">
        <mxGraphModel dx="832" dy="599" grid="1" gridSize="10" guides="1" tooltips="1" connect="1" arrows="1" fold="1" page="1" pageScale="1" pageWidth="850" pageHeight="1100" background="#ffffff" math="0" shadow="0">
            <root>
                <mxCell id="0"/>
                <mxCell id="1" parent="0"/>
                <mxCell id="2" value="Entity Relation Diagram WebShop" style="rounded=0;whiteSpace=wrap;html=1;" parent="1" vertex="1">
                    <mxGeometry x="560" y="80" width="280" height="40" as="geometry"/>
                </mxCell>
                <mxCell id="4" value="user" style="rounded=0;whiteSpace=wrap;html=1;" parent="1" vertex="1">
                    <mxGeometry x="240" y="240" width="120" height="40" as="geometry"/>
                </mxCell>
                <mxCell id="5" value="properties" style="rounded=0;whiteSpace=wrap;html=1;" parent="1" vertex="1">
                    <mxGeometry x="440" y="240" width="120" height="40" as="geometry"/>
                </mxCell>
                <mxCell id="31" style="edgeStyle=none;html=1;endArrow=ERmany;endFill=0;labelBackgroundColor=#FFFFFF;strokeColor=#000000;" parent="1" source="7" target="11" edge="1">
                    <mxGeometry relative="1" as="geometry"/>
                </mxCell>
                <mxCell id="7" value="id(PK)&lt;br&gt;user_name&lt;br&gt;user_email&lt;br&gt;user_password" style="rounded=0;whiteSpace=wrap;html=1;" parent="1" vertex="1">
                    <mxGeometry x="240" y="280" width="120" height="120" as="geometry"/>
                </mxCell>
                <mxCell id="59" style="edgeStyle=none;html=1;entryX=0;entryY=0.5;entryDx=0;entryDy=0;strokeColor=#000000;startArrow=none;startFill=0;endArrow=ERmany;endFill=0;" edge="1" parent="1" source="8" target="36">
                    <mxGeometry relative="1" as="geometry"/>
                </mxCell>
                <mxCell id="8" value="id(PK)&lt;br&gt;name&lt;br&gt;unit" style="rounded=0;whiteSpace=wrap;html=1;" parent="1" vertex="1">
                    <mxGeometry x="440" y="280" width="120" height="120" as="geometry"/>
                </mxCell>
                <mxCell id="11" value="invoice" style="rounded=0;whiteSpace=wrap;html=1;" parent="1" vertex="1">
                    <mxGeometry x="240" y="480" width="120" height="40" as="geometry"/>
                </mxCell>
                <mxCell id="12" value="id(PK)&lt;br&gt;user_id(FK)&lt;br&gt;date" style="rounded=0;whiteSpace=wrap;html=1;" parent="1" vertex="1">
                    <mxGeometry x="240" y="520" width="120" height="120" as="geometry"/>
                </mxCell>
                <mxCell id="13" value="invoice_row" style="rounded=0;whiteSpace=wrap;html=1;" parent="1" vertex="1">
                    <mxGeometry x="440" y="480" width="120" height="40" as="geometry"/>
                </mxCell>
                <mxCell id="14" value="id(PK)&lt;br&gt;invoice_id(FK)&lt;br&gt;product_price_id(FK)&lt;br&gt;quantity" style="rounded=0;whiteSpace=wrap;html=1;" parent="1" vertex="1">
                    <mxGeometry x="440" y="520" width="120" height="120" as="geometry"/>
                </mxCell>
                <mxCell id="22" value="" style="endArrow=ERmany;html=1;exitX=1;exitY=0.5;exitDx=0;exitDy=0;entryX=0;entryY=0.5;entryDx=0;entryDy=0;endFill=0;labelBackgroundColor=#FFFFFF;strokeColor=#000000;" parent="1" source="12" target="14" edge="1">
                    <mxGeometry width="50" height="50" relative="1" as="geometry">
                        <mxPoint x="540" y="360" as="sourcePoint"/>
                        <mxPoint x="590" y="310" as="targetPoint"/>
                    </mxGeometry>
                </mxCell>
                <mxCell id="57" style="edgeStyle=none;html=1;entryX=1;entryY=0.5;entryDx=0;entryDy=0;strokeColor=#000000;startArrow=none;startFill=0;endArrow=ERmany;endFill=0;" edge="1" parent="1" source="34" target="14">
                    <mxGeometry relative="1" as="geometry"/>
                </mxCell>
                <mxCell id="34" value="id(PK)&lt;br&gt;product_size_id(FK)&lt;br&gt;material_id(FK)&lt;br&gt;price" style="rounded=0;whiteSpace=wrap;html=1;" vertex="1" parent="1">
                    <mxGeometry x="640" y="520" width="120" height="120" as="geometry"/>
                </mxCell>
                <mxCell id="35" value="id(PK)&lt;br&gt;name&lt;br&gt;order" style="rounded=0;whiteSpace=wrap;html=1;" vertex="1" parent="1">
                    <mxGeometry x="640" y="760" width="120" height="120" as="geometry"/>
                </mxCell>
                <mxCell id="60" style="edgeStyle=none;html=1;strokeColor=#000000;startArrow=ERoneToMany;startFill=0;endArrow=none;endFill=0;" edge="1" parent="1" source="36" target="42">
                    <mxGeometry relative="1" as="geometry"/>
                </mxCell>
                <mxCell id="36" value="id(PK)&lt;br&gt;product_size_id(FK)&lt;br&gt;product_price_id(FK)&lt;br&gt;value&lt;br&gt;property_id(FK)" style="rounded=0;whiteSpace=wrap;html=1;" vertex="1" parent="1">
                    <mxGeometry x="640" y="280" width="120" height="120" as="geometry"/>
                </mxCell>
                <mxCell id="62" style="edgeStyle=none;html=1;strokeColor=#000000;startArrow=none;startFill=0;endArrow=ERmany;endFill=0;" edge="1" parent="1" source="37" target="40">
                    <mxGeometry relative="1" as="geometry"/>
                </mxCell>
                <mxCell id="37" value="id(PK)&lt;br&gt;name&lt;br&gt;image&lt;br&gt;description" style="rounded=0;whiteSpace=wrap;html=1;" vertex="1" parent="1">
                    <mxGeometry x="840" y="280" width="120" height="120" as="geometry"/>
                </mxCell>
                <mxCell id="49" style="edgeStyle=none;html=1;entryX=1;entryY=0.5;entryDx=0;entryDy=0;strokeColor=#000000;endArrow=ERmany;endFill=0;" edge="1" parent="1" source="38" target="34">
                    <mxGeometry relative="1" as="geometry"/>
                </mxCell>
                <mxCell id="38" value="id(PK)&lt;br&gt;size_id(FK)&lt;br&gt;product_id(FK)" style="rounded=0;whiteSpace=wrap;html=1;" vertex="1" parent="1">
                    <mxGeometry x="840" y="520" width="120" height="120" as="geometry"/>
                </mxCell>
                <mxCell id="52" style="edgeStyle=none;html=1;entryX=1;entryY=0.5;entryDx=0;entryDy=0;strokeColor=#000000;endArrow=ERmany;endFill=0;" edge="1" parent="1" source="39" target="38">
                    <mxGeometry relative="1" as="geometry"/>
                </mxCell>
                <mxCell id="39" value="id(PK)&lt;br&gt;size&lt;br&gt;order" style="rounded=0;whiteSpace=wrap;html=1;" vertex="1" parent="1">
                    <mxGeometry x="1040" y="520" width="120" height="120" as="geometry"/>
                </mxCell>
                <mxCell id="40" value="product_size" style="rounded=0;whiteSpace=wrap;html=1;" vertex="1" parent="1">
                    <mxGeometry x="840" y="480" width="120" height="40" as="geometry"/>
                </mxCell>
                <mxCell id="58" style="edgeStyle=none;html=1;entryX=0.5;entryY=1;entryDx=0;entryDy=0;strokeColor=#000000;startArrow=none;startFill=0;endArrow=ERmany;endFill=0;" edge="1" parent="1" source="41" target="34">
                    <mxGeometry relative="1" as="geometry"/>
                </mxCell>
                <mxCell id="41" value="material" style="rounded=0;whiteSpace=wrap;html=1;" vertex="1" parent="1">
                    <mxGeometry x="640" y="720" width="120" height="40" as="geometry"/>
                </mxCell>
                <mxCell id="42" value="product_price" style="rounded=0;whiteSpace=wrap;html=1;" vertex="1" parent="1">
                    <mxGeometry x="640" y="480" width="120" height="40" as="geometry"/>
                </mxCell>
                <mxCell id="43" value="product_properties" style="rounded=0;whiteSpace=wrap;html=1;" vertex="1" parent="1">
                    <mxGeometry x="640" y="240" width="120" height="40" as="geometry"/>
                </mxCell>
                <mxCell id="44" value="product&lt;br&gt;" style="rounded=0;whiteSpace=wrap;html=1;" vertex="1" parent="1">
                    <mxGeometry x="840" y="240" width="120" height="40" as="geometry"/>
                </mxCell>
                <mxCell id="45" value="size" style="rounded=0;whiteSpace=wrap;html=1;" vertex="1" parent="1">
                    <mxGeometry x="1040" y="480" width="120" height="40" as="geometry"/>
                </mxCell>
                <mxCell id="63" value="" style="endArrow=ERmany;html=1;strokeColor=#000000;exitX=0;exitY=0.25;exitDx=0;exitDy=0;entryX=1;entryY=0.5;entryDx=0;entryDy=0;startArrow=none;startFill=0;endFill=0;" edge="1" parent="1" source="38" target="36">
                    <mxGeometry width="50" height="50" relative="1" as="geometry">
                        <mxPoint x="790" y="540" as="sourcePoint"/>
                        <mxPoint x="840" y="490" as="targetPoint"/>
                        <Array as="points">
                            <mxPoint x="800" y="550"/>
                            <mxPoint x="800" y="340"/>
                        </Array>
                    </mxGeometry>
                </mxCell>
            </root>
        </mxGraphModel>
    </diagram>
</mxfile>